# xmcd
# 
# Track frame offsets:
#     150
#     3230
#     25997
#     45487
#     64630
#     84412
#     102172
#     114557
#     130597
#     145530
#     158080
#     178560
#     197740
#     215762
#     238165
#     263220
#     288192
# 
# Disc length: 3956
# 
# Revision: 16
# Processed by: cddbd v1.5.2PL0 Copyright (c) Steve Scherf et al.
# Submitted via: fre:ac v1.0.17
# 
DISCID=e10f7211
DTITLE=初音ミク - 初音ミク ベスト '07-'09 -memories-
DYEAR=2009
DGENRE=VOCALOID
TTITLE0=ケフィアP feat.初音ミク - intro ~memories~
TTITLE1=malo feat.初音ミク - ハジメテノオト
TTITLE2=supercell feat.初音ミク - メルト
TTITLE3=supercell feat.初音ミク - ワールドイズマイン
TTITLE4=OSTER project feat.初音ミク - ミラクルペイント
TTITLE5=ゆうゆ feat.初音ミク - 白の季節
TTITLE6=小林オニキス feat.初音ミク - サイハテ
TTITLE7=azuma feat.初音ミク - あなたの歌姫 Complete ver.
TTITLE8=ヤスオ feat.初音ミク - えれくとりっく・えんじぇぅ
TTITLE9=GonGoss feat.初音ミク - White Letter
TTITLE10=mikuru396 feat.初音ミク - melody…
TTITLE11=ぢょんP feat.初音ミク - そばかす
TTITLE12=baker feat.初音ミク - celluloid
TTITLE13=livetune feat.初音ミク - Packaged
TTITLE14=OneRoom feat.初音ミク - from Y to Y
TTITLE15=doriko feat.初音ミク - 歌に形はないけれど
TTITLE16=North-T feat.初音ミク - outro ~タイムリミット -Endless-~
EXTD=YEAR: 2009
EXTT0=
EXTT1=
EXTT2=
EXTT3=
EXTT4=
EXTT5=
EXTT6=
EXTT7=
EXTT8=
EXTT9=
EXTT10=
EXTT11=
EXTT12=
EXTT13=
EXTT14=
EXTT15=
EXTT16=
PLAYORDER=
